<svg width="131" height="84" viewBox="0 0 131 84" fill="none" xmlns="http://www.w3.org/2000/svg">
<path d="M10 68.2434C10.1532 67.1201 10.1225 65.9792 10.1988 64.848C10.6112 58.7277 10.9466 53.8126 11.6232 47.6721C12.0915 43.4212 12.5489 39.0207 13.942 34.9434C15.3422 30.8453 17.6568 26.0335 21.238 23.4072C22.8489 22.2259 24.1194 22.5966 25.5196 24.0035C27.5824 26.0761 29.1337 28.877 30.3312 31.5148C32.8587 37.0827 34.5394 43.2352 36.2193 49.0965C36.3917 49.6979 36.5595 50.3008 36.7229 50.905M36.7229 50.905C38.2315 56.4816 39.3728 62.1673 40.4098 67.8459C40.7028 69.4506 40.977 71.0622 41.0972 72.6906C41.1284 73.1144 41.2823 74.2304 40.9564 73.9577C40.4384 73.5243 40.0181 72.53 39.6893 71.9867C39.1085 71.0267 38.5133 70.0767 37.9253 69.1213M36.7229 50.905C31.5443 53.4445 24.9487 56.662 23.8385 57.2207C21.4702 58.4123 17.471 59.9497 15.2671 61.8169M36.7229 50.905C39.7797 49.4059 42.3429 48.1431 42.9928 47.8027M44.0371 29.7674C43.9901 32.4385 43.9103 34.7609 44.1696 37.5355C44.3941 39.9361 44.5298 42.3749 45.1717 44.699C46.1381 48.1979 47.0427 51.2475 50.6375 47.9951C50.9991 47.6679 51.3211 47.3045 51.6166 46.9176M51.6166 46.9176C52.4046 45.8857 53.0038 44.6868 53.6603 43.5644C54.284 42.4982 54.7452 41.3421 55.2006 40.1939C55.2689 40.0219 55.3791 39.5494 55.2172 39.639C54.7779 39.8822 54.5435 40.3838 54.1986 40.7487C53.2891 41.711 52.6032 42.4101 51.623 43.2994C50.8105 44.0367 50.2849 44.4601 49.4284 45.0965C49.1647 45.2925 48.8933 45.4781 48.6251 45.6679C48.4133 45.8179 47.8473 45.9479 48.0123 46.1483C48.0657 46.2132 49.4831 46.0929 49.5278 46.0986C50.2977 46.1958 50.9797 46.5097 51.6166 46.9176ZM51.6166 46.9176C51.8389 47.06 52.0558 47.2138 52.269 47.3739C54.3942 48.97 56.1773 51.1932 58.6209 52.3346C60.6273 53.2718 63.4432 52.9864 64.5339 50.8439C65.1421 49.6494 65.4034 48.0465 65.2347 46.69M65.2347 46.69C65.2259 46.6191 65.2159 46.5489 65.2047 46.4795C65.1943 46.4145 65.0817 46.2499 65.0971 46.3139C65.1272 46.4396 65.1745 46.5664 65.2347 46.69ZM65.2347 46.69C65.3823 46.9927 65.6078 47.2757 65.8507 47.4733C66.4498 47.9607 67.211 48.2589 68.0184 48.4012M68.0184 48.4012C69.1815 48.6062 70.4404 48.4875 71.449 48.1441C74.1909 47.2107 75.2342 43.89 74.7451 41.2456C74.391 39.3312 72.8664 37.1118 70.8031 36.7736C67.6872 36.2628 67.0379 40.5881 66.9273 42.7363C66.8541 44.1578 66.7654 47.0891 68.0184 48.4012ZM68.0184 48.4012C68.2851 48.6806 68.6127 48.8865 69.0142 48.9888C71.8786 49.719 74.6211 45.7804 76.0536 43.9537C78.8372 40.4037 81.3656 36.6565 84.2109 33.1546C85.3656 31.7333 86.3762 31.3783 87.6311 33.0303C88.9303 34.7406 89.6072 37.0942 89.6889 39.2839M89.6889 39.2839C89.7013 39.6168 89.7 39.9459 89.685 40.2684C89.5897 42.3164 88.4574 43.2922 86.5214 43.5644C85.3462 43.7297 86.149 42.9161 86.5931 42.4661L86.6125 42.4464C87.661 41.3833 88.7081 40.3635 89.6889 39.2839ZM89.6889 39.2839C90.6152 38.2643 91.4823 37.1914 92.2357 35.9786C93.9056 33.2901 95.0936 30.2179 95.7138 27.0304M95.7138 27.0304C96.7347 21.7828 96.2166 16.2227 93.776 11.548C93.6127 11.2352 92.4128 8.84659 92.9479 10.695C94.2573 15.2185 95.1314 19.7698 95.5152 24.4672C95.5847 25.3187 95.6519 26.1735 95.7138 27.0304ZM95.7138 27.0304C95.988 30.8306 96.1573 34.6739 95.9624 38.463C95.9196 39.2949 95.8497 40.137 95.7387 40.9698M95.7387 40.9698C95.6893 41.3402 95.6318 41.7088 95.5648 42.0738C95.5475 42.1686 95.544 42.2703 95.4986 42.3553C95.3967 42.5463 95.5188 41.9209 95.5648 41.7094C95.6185 41.4626 95.6766 41.216 95.7387 40.9698ZM95.7387 40.9698C96.6297 37.4369 98.3626 33.9656 100.26 30.9103C100.755 30.1147 104.958 23.2535 106.571 25.0966C107.116 25.719 107.382 26.6828 107.606 27.4237C108.193 29.3654 108.536 31.3724 109.13 33.3119C110.079 36.4109 111.878 40.6603 115.325 41.6762C116.902 42.1411 119.163 42.0202 120.708 41.4278C121.009 41.3122 121.162 41.1537 120.956 40.9475" stroke="black" stroke-width="1.82031" stroke-linecap="round"/>
</svg>
